<svg xmlns="http://www.w3.org/2000/svg" width="40" height="40" viewBox="0 0 40 40">
  <path id="github" d="M20,.3A20.256,20.256,0,0,0,0,20.8,20.465,20.465,0,0,0,13.675,40.262c1,.193,1.367-.441,1.367-.986,0-.487-.017-1.777-.025-3.486C9.453,37.026,8.28,33.038,8.28,33.038a5.4,5.4,0,0,0-2.225-3c-1.812-1.271.14-1.246.14-1.246A4.206,4.206,0,0,1,9.258,30.9c1.783,3.136,4.682,2.23,5.825,1.706a4.415,4.415,0,0,1,1.267-2.743c-4.442-.513-9.11-2.276-9.11-10.134A8.024,8.024,0,0,1,9.3,14.23,7.463,7.463,0,0,1,9.473,8.8s1.675-.55,5.5,2.1a18.406,18.406,0,0,1,10,0c3.8-2.652,5.475-2.1,5.475-2.1a7.67,7.67,0,0,1,.2,5.428,8.058,8.058,0,0,1,2.05,5.5c0,7.878-4.675,9.613-9.125,10.117a4.977,4.977,0,0,1,1.35,3.794c0,2.745-.025,4.949-.025,5.616,0,.538.35,1.179,1.375.974A20.394,20.394,0,0,0,40,20.8,20.26,20.26,0,0,0,20,.3" transform="translate(0 -0.297)" fill="#ededed"/>
</svg>
